<?xml version="1.0" standalone="no"?>
<!DOCTYPE svg PUBLIC "-//W3C//DTD SVG 20010904//EN"
 "http://www.w3.org/TR/2001/REC-SVG-20010904/DTD/svg10.dtd">
<svg version="1.0" xmlns="http://www.w3.org/2000/svg"
 width="512.000000pt" height="512.000000pt" viewBox="0 0 512.000000 512.000000"
 preserveAspectRatio="xMidYMid meet">
<metadata>
Created by potrace 1.11, written by Peter Selinger 2001-2013
</metadata>
<g transform="translate(0.000000,512.000000) scale(0.100000,-0.100000)"
fill="#000000" stroke="none">
<path d="M1150 4790 l0 -120 -120 0 -120 0 0 -120 0 -120 120 0 120 0 0 120 0
120 120 0 120 0 0 -720 0 -720 -120 0 -120 0 0 -120 0 -120 -120 0 -120 0 0
-120 0 -120 120 0 120 0 0 -240 0 -240 -120 0 -120 0 0 -120 0 -120 360 0 360
0 0 120 0 120 120 0 120 0 0 -120 0 -120 600 0 600 0 0 120 0 120 240 0 240 0
0 120 0 120 120 0 120 0 0 240 0 240 120 0 120 0 0 600 0 600 -120 0 -120 0 0
240 0 240 -120 0 -120 0 0 -120 0 -120 -120 0 -120 0 0 -120 0 -120 -360 0
-360 0 0 240 0 240 -120 0 -120 0 0 -120 0 -120 -120 0 -120 0 0 -120 0 -120
-240 0 -240 0 0 240 0 240 -120 0 -120 0 0 120 0 120 -120 0 -120 0 0 -120z
m1440 -840 l0 -240 -360 0 -360 0 0 120 0 120 120 0 120 0 0 120 0 120 240 0
240 0 0 -240z m960 0 l0 -240 -240 0 -240 0 0 120 0 120 120 0 120 0 0 120 0
120 120 0 120 0 0 -240z m-960 -600 l0 -120 -360 0 -360 0 0 120 0 120 360 0
360 0 0 -120z m960 0 l0 -120 -240 0 -240 0 0 120 0 120 240 0 240 0 0 -120z
m-2160 -480 l0 -120 -120 0 -120 0 0 120 0 120 120 0 120 0 0 -120z m960 -120
l0 -240 -360 0 -360 0 0 -120 0 -120 -120 0 -120 0 0 120 0 120 120 0 120 0 0
120 0 120 120 0 120 0 0 120 0 120 240 0 240 0 0 -240z m960 120 l0 -120 -120
0 -120 0 0 -120 0 -120 -120 0 -120 0 0 -120 0 -120 -120 0 -120 0 0 240 0
240 120 0 120 0 0 120 0 120 240 0 240 0 0 -120z"/>
<path d="M1243 1612 l-23 -3 0 -655 0 -654 95 0 95 0 0 655 c0 360 -3 655 -7
656 -33 3 -142 3 -160 1z"/>
<path d="M1599 1615 c-1 0 -3 -296 -4 -658 l-1 -657 283 0 283 0 -1 95 0 95
-188 0 -188 0 0 468 0 467 181 -1 c100 -1 184 -2 187 -3 3 0 5 -206 5 -457 -1
-251 2 -460 5 -466 5 -8 62 -11 160 -9 l25 1 -1 458 c-1 251 -2 462 -3 468 -1
7 -32 11 -88 10 -47 -1 -88 3 -91 7 -3 5 -5 46 -5 93 l0 84 -31 1 c-22 0 -505
4 -528 4z"/>
<path d="M2547 1612 c-16 -3 -17 -55 -17 -658 l0 -654 283 0 282 0 1 95 1 95
-188 0 -189 0 0 560 c0 441 -3 560 -12 561 -57 3 -148 3 -161 1z"/>
<path d="M3303 1612 l-22 -3 1 -655 0 -654 282 0 283 0 -1 95 0 95 -188 0
-188 0 0 185 0 185 188 2 187 3 0 93 1 92 -188 0 -188 0 0 185 c0 141 3 185
13 186 6 1 91 2 187 3 l175 1 0 93 c1 86 0 92 -20 93 -88 2 -505 3 -522 1z"/>
</g>
</svg>
